<?xml version="1.0" encoding="UTF-8" standalone="no"?>
<svg
   version="1.1"
   id="svg44"
   width="511.98489"
   height="511.98489"
   viewBox="0 0 511.98489 511.98489"
   sodipodi:docname="daily-digest-logo.svg"
   inkscape:version="1.4 (e7c3feb1, 2024-10-09)"
   xmlns:inkscape="http://www.inkscape.org/namespaces/inkscape"
   xmlns:sodipodi="http://sodipodi.sourceforge.net/DTD/sodipodi-0.dtd"
   xmlns:xlink="http://www.w3.org/1999/xlink"
   xmlns="http://www.w3.org/2000/svg"
   xmlns:svg="http://www.w3.org/2000/svg">
  <sodipodi:namedview
     id="namedview1"
     pagecolor="#ffffff"
     bordercolor="#000000"
     borderopacity="0.25"
     inkscape:showpageshadow="2"
     inkscape:pageopacity="0.0"
     inkscape:pagecheckerboard="0"
     inkscape:deskcolor="#d1d1d1"
     inkscape:zoom="0.31969943"
     inkscape:cx="-104.78592"
     inkscape:cy="67.250667"
     inkscape:window-width="1512"
     inkscape:window-height="830"
     inkscape:window-x="0"
     inkscape:window-y="34"
     inkscape:window-maximized="1"
     inkscape:current-layer="svg44" />
  <defs
     id="defs18">
    <linearGradient
       xlink:href="#linearGradient4975"
       id="linearGradient4633"
       gradientUnits="userSpaceOnUse"
       gradientTransform="matrix(231.62575,0,0,231.62472,111.11013,159.99363)"
       x2="0.5565635"
       x1="0.46521288"
       y1="-0.67390651"
       y2="0.81129867" />
    <linearGradient
       id="linearGradient4975">
      <stop
         style="stop-color:#1972e7"
         offset="0"
         id="stop4971" />
      <stop
         style="stop-color:#1969d5"
         offset="1"
         id="stop4973" />
    </linearGradient>
    <linearGradient
       xlink:href="#3"
       id="linearGradient1331"
       x1="101.74381"
       y1="33.726189"
       x2="101.59915"
       y2="135.466"
       gradientUnits="userSpaceOnUse"
       gradientTransform="matrix(3.7794235,0,0,3.7794067,0.00151555,0.00377865)" />
    <linearGradient
       id="3"
       x2="1"
       gradientTransform="matrix(61.286,0,0,61.286,29.399,42.333)"
       gradientUnits="userSpaceOnUse">
      <stop
         offset="0"
         id="stop1397"
         style="stop-color:#afccfb" />
      <stop
         offset="1"
         id="stop1399"
         style="stop-color:#8bb5f8" />
    </linearGradient>
    <linearGradient
       xlink:href="#1"
       id="linearGradient2962"
       gradientUnits="userSpaceOnUse"
       gradientTransform="matrix(94.931559,164.42687,-164.4276,94.931137,97.555991,173.61083)"
       x2="1.7695541"
       x1="0.018202547"
       y1="-0.51170158"
       y2="0.4994337" />
    <linearGradient
       id="1"
       x2="1"
       gradientTransform="matrix(25.118,43.506,-43.506,25.118,25.812,45.935)"
       gradientUnits="userSpaceOnUse">
      <stop
         offset="0"
         id="stop3122"
         style="stop-color:#659cf6" />
      <stop
         offset="1"
         id="stop3124"
         style="stop-color:#4285f4" />
    </linearGradient>
    <linearGradient
       xlink:href="#2"
       id="linearGradient2688"
       x1="67.452377"
       y1="40.320694"
       x2="67.733002"
       y2="95.25"
       gradientUnits="userSpaceOnUse"
       gradientTransform="matrix(3.7794235,0,0,3.7794067,0.00150043,0.00377865)" />
    <linearGradient
       id="2">
      <stop
         style="stop-color:#3680f0"
         offset="0"
         id="stop2682" />
      <stop
         style="stop-color:#2678ec"
         offset="1"
         id="stop2684" />
    </linearGradient>
  </defs>
  <path
     d="m 255.99319,255.99433 c 36.95016,21.33224 73.90033,42.66447 110.85049,63.99671 -36.95016,63.99795 -73.90033,127.9959 -110.85049,191.99385 100.66274,1.39797 197.74362,-63.30202 235.87466,-156.34733 31.11539,-72.57811 25.82934,-159.52161 -14.21411,-227.64039 -73.88773,0 -147.77547,0 -221.6632,0 8.8e-4,42.66572 0.002,85.33144 0.003,127.99716 z"
     id="path34-4"
     style="fill:url(#linearGradient1331)" />
  <path
     d="M 255.99054,0 C 166.17716,-0.98263851 78.553248,49.987551 34.31224,128.0274 c 36.942603,63.98788 73.88521,127.97575 110.82781,191.96363 36.95016,-21.33223 73.90033,-42.66447 110.85049,-63.9967 0,-42.66572 0,-85.33144 0,-127.99716 73.88773,0 147.77547,0 221.6632,0 C 433.14363,49.809436 346.09893,-0.84670203 255.99054,0 Z"
     id="path36-1"
     style="fill:url(#linearGradient4633)" />
  <path
     d="M 0.00151177,255.99433 C -1.3966935,356.65661 63.302497,453.73771 156.34793,491.86793 187.76181,505.18725 221.87941,512.0185 255.9932,511.98489 292.94336,447.98694 329.89352,383.98898 366.84368,319.99103 329.89352,298.6588 292.94336,277.32656 255.9932,255.99433 219.04304,277.32656 182.09287,298.6588 145.14271,319.99103 108.20011,256.00315 71.257501,192.01528 34.314897,128.0274 11.860686,166.68257 -0.0918993,211.28717 0,255.99056"
     id="path38-7"
     style="fill:url(#linearGradient2962)" />
  <circle
     style="display:inline;fill:#ffffff;stroke:none;stroke-width:0.429799"
     id="circle1"
     cx="255.99319"
     cy="255.99434"
     r="175" />
  <rect
     style="fill:#1971e5;fill-opacity:1;stroke:none;stroke-width:0.416683"
     id="rect1"
     width="55.427887"
     height="183.5775"
     x="228.26904"
     y="94.90625"
     ry="21.781504"
     rx="27.713943" />
  <rect
     style="fill:#1971e5;fill-opacity:1;stroke:none;stroke-width:0.389"
     id="rect1-9"
     width="55.427887"
     height="159.9955"
     x="59.63261"
     y="-486.5369"
     ry="18.983494"
     rx="27.713943"
     transform="rotate(121.274)" />
</svg>
